<?xml version="1.0" encoding="utf-8"?>
<!-- Generator: Adobe Illustrator 25.0.1, SVG Export Plug-In . SVG Version: 6.00 Build 0)  -->
<svg version="1.1" id="レイヤー_1" xmlns="http://www.w3.org/2000/svg" xmlns:xlink="http://www.w3.org/1999/xlink" x="0px"
	 y="0px" viewBox="0 0 320 320" style="enable-background:new 0 0 320 320;" xml:space="preserve">
<style type="text/css">
	.st0{fill:#FFFFFF;}
</style>
<path class="st0" d="M246,104"/>
<rect class="st0" width="320" height="320"/>
<g>
	<defs>
		<path id="SVGID_1_" d="M245.99,128.51c5.35-0.42,7.55-1.52,8.72-2.56c0.18-0.16,0.53-0.51,0.97-1.07c2.35-3.05,2.75-7,3.63-14.52
			c0.83-7.1,6.5-38.48,2.42-42.36c-1.75-1.67-24.01-11.16-25.42-10.89c-4.14,0.79-3.93,7.02-7.26,9.68
			c-6.42,5.12-19.82-7.89-38.73-14.52c-26.98-9.47-52.56-2.07-59.3,0c-18.29,5.6-30.24,15.36-35.1,19.36
			c-23.05,19-31.99,43.04-33.89,48.41c-6.75,19.15-6.35,35.1-6.05,43.57c0.45,13.03,1.57,46.82,26.51,74.06
			c16.07,17.55,34.42,24.32,43.69,27.6c2.77,0.98,66.9,22.67,108.92-14.52c9.09-8.05,14.74-16.72,18.15-23
			c3.11-7.97,6.04-16.86,8.47-26.63c0.93-3.73,1.73-7.36,2.42-10.89c0,0,0.01,0,0.01,0c0.04-0.07-7.75-5.02-15.74-7.26
			c-2.42-0.68-10.11-2.83-15.73-1.21c-13.72,3.96-7.85,28.35-23,43.57c-18.14,18.24-52.74,9.57-56.88,8.47
			c-6.58-1.74-24.88-7.57-38.73-25.42c-16.88-21.76-15.16-45.93-14.52-53.25c1.71-19.58,10.29-33.11,13.31-37.52
			c11-16.07,25.08-23.66,31.47-26.63c8.25-3.52,25.07-9.15,44.78-4.84c7.57,1.66,18.16,3.97,26.63,13.31
			c11.91,13.14,10.89,30.56,10.89,30.56c0,0,0,0,0,0.01c0,0,0,0,0,0C233.08,129.52,239.54,129.02,245.99,128.51z"/>
	</defs>
	<use xlink:href="#SVGID_1_"  style="overflow:visible;"/>
	<clipPath id="SVGID_2_">
		<use xlink:href="#SVGID_1_"  style="overflow:visible;"/>
	</clipPath>
</g>
</svg>
